<svg width="50" height="30" viewBox="0 0 50 30" fill="none" xmlns="http://www.w3.org/2000/svg">
<path fill-rule="evenodd" clip-rule="evenodd" d="M0 3.26087C0 1.45994 1.45994 0 3.26087 0H46.7391C48.5401 0 50 1.45994 50 3.26087C50 5.0618 48.5401 6.52174 46.7391 6.52174H3.26087C1.45994 6.52174 0 5.0618 0 3.26087ZM0 15C0 13.1991 1.45994 11.7391 3.26087 11.7391H46.7391C48.5401 11.7391 50 13.1991 50 15C50 16.8009 48.5401 18.2609 46.7391 18.2609H3.26087C1.45994 18.2609 0 16.8009 0 15ZM3.26087 23.4783C1.45994 23.4783 0 24.9382 0 26.7391C0 28.5401 1.45994 30 3.26087 30H46.7391C48.5401 30 50 28.5401 50 26.7391C50 24.9382 48.5401 23.4783 46.7391 23.4783H3.26087Z" fill="#0077FF" fill-opacity="0.5"/>
</svg>
